<?xml version="1.0" encoding="UTF-8" standalone="no"?>
<!-- Created with Inkscape (http://www.inkscape.org/) -->

<svg
   xmlns:dc="http://purl.org/dc/elements/1.1/"
   xmlns:cc="http://creativecommons.org/ns#"
   xmlns:rdf="http://www.w3.org/1999/02/22-rdf-syntax-ns#"
   xmlns:svg="http://www.w3.org/2000/svg"
   xmlns="http://www.w3.org/2000/svg"
   xmlns:xlink="http://www.w3.org/1999/xlink"
   xmlns:sodipodi="http://sodipodi.sourceforge.net/DTD/sodipodi-0.dtd"
   xmlns:inkscape="http://www.inkscape.org/namespaces/inkscape"
   width="1920px"
   height="1570px"
   viewBox="0 0 1920 1570"
   version="1.1"
   id="SVGRoot"
   inkscape:version="0.92.3 (2405546, 2018-03-11)"
   sodipodi:docname="cloudprint.svg"
   inkscape:export-filename="/mnt/buselmu/pictures/browser thumbnails/miscellaneous.png"
   inkscape:export-xdpi="96"
   inkscape:export-ydpi="96">
  <sodipodi:namedview
     id="base"
     pagecolor="#ffffff"
     bordercolor="#666666"
     borderopacity="1.0"
     inkscape:pageopacity="0.0"
     inkscape:pageshadow="2"
     inkscape:zoom="0.5"
     inkscape:cx="292.4211"
     inkscape:cy="503.7325"
     inkscape:document-units="px"
     inkscape:current-layer="layer2"
     showgrid="false"
     inkscape:window-width="1920"
     inkscape:window-height="1145"
     inkscape:window-x="1920"
     inkscape:window-y="26"
     inkscape:window-maximized="1"
     showguides="true"
     inkscape:guide-bbox="true">
    <sodipodi:guide
       position="0,1569.9999"
       orientation="0.70710678,0.70710678"
       id="guide1452"
       inkscape:locked="false" />
    <sodipodi:guide
       position="1920,1569.9999"
       orientation="-0.70710678,0.70710678"
       id="guide1454"
       inkscape:locked="false" />
    <sodipodi:guide
       position="0,-0.00012207031"
       orientation="-0.70710678,0.70710678"
       id="guide1458"
       inkscape:locked="false" />
    <sodipodi:guide
       position="1920,-0.00012207031"
       orientation="0.70710678,0.70710678"
       id="guide1460"
       inkscape:locked="false" />
    <sodipodi:guide
       position="1135,784.99989"
       orientation="0,1"
       id="guide1462"
       inkscape:locked="false" />
    <sodipodi:guide
       position="353,784.99989"
       orientation="1,0"
       id="guide860"
       inkscape:locked="false"
       inkscape:label=""
       inkscape:color="rgb(0,0,255)" />
    <sodipodi:guide
       position="453,784.99989"
       orientation="1,0"
       id="guide862"
       inkscape:locked="false"
       inkscape:label=""
       inkscape:color="rgb(0,0,255)" />
    <sodipodi:guide
       position="253,784.99989"
       orientation="1,0"
       id="guide864"
       inkscape:locked="false"
       inkscape:label=""
       inkscape:color="rgb(0,0,255)" />
    <sodipodi:guide
       position="453,820"
       orientation="0,1"
       id="guide892"
       inkscape:locked="false"
       inkscape:label=""
       inkscape:color="rgb(0,0,255)" />
    <sodipodi:guide
       position="353,820"
       orientation="0.70710678,0.70710678"
       id="guide894"
       inkscape:locked="false" />
    <sodipodi:guide
       position="253,784.99989"
       orientation="0.70710678,0.70710678"
       id="guide896"
       inkscape:locked="false" />
    <sodipodi:guide
       position="217.99989,820"
       orientation="1,0"
       id="guide898"
       inkscape:locked="false" />
    <sodipodi:guide
       position="388.00011,784.99989"
       orientation="1,0"
       id="guide900"
       inkscape:locked="false" />
    <sodipodi:guide
       position="388.00011,820"
       orientation="-0.70710678,0.70710678"
       id="guide904"
       inkscape:locked="false" />
    <sodipodi:guide
       position="353,750"
       orientation="0,1"
       id="guide906"
       inkscape:locked="false"
       inkscape:label=""
       inkscape:color="rgb(0,0,255)" />
    <sodipodi:guide
       position="318.00011,750"
       orientation="1,0"
       id="guide908"
       inkscape:locked="false" />
    <sodipodi:guide
       position="287.99989,750"
       orientation="1,0"
       id="guide910"
       inkscape:locked="false" />
    <sodipodi:guide
       position="217.99989,649.99978"
       orientation="0,1"
       id="guide942"
       inkscape:locked="false" />
    <sodipodi:guide
       position="960,959.99988"
       orientation="0,1"
       id="guide944"
       inkscape:locked="false" />
    <sodipodi:guide
       position="960,609.9999"
       orientation="0,1"
       id="guide946"
       inkscape:locked="false" />
    <sodipodi:guide
       position="569.00001,1000.9999"
       orientation="1,0"
       id="guide948"
       inkscape:locked="false" />
    <sodipodi:guide
       position="488,784.99989"
       orientation="1,0"
       id="guide905"
       inkscape:locked="false"
       inkscape:label=""
       inkscape:color="rgb(0,0,255)" />
    <sodipodi:guide
       position="418,784.99989"
       orientation="1,0"
       id="guide907"
       inkscape:locked="false"
       inkscape:label=""
       inkscape:color="rgb(0,0,255)" />
  </sodipodi:namedview>
  <defs
     id="defs825">
    <linearGradient
       gradientTransform="matrix(0,0.99999997,0.99999998,0,2183.8571,98.571407)"
       y2="199"
       x2="400"
       y1="199"
       x1="9.094947e-013"
       gradientUnits="userSpaceOnUse"
       id="SVGID_1_">
      <stop
         id="stop1505"
         style="stop-color:#E52D27"
         offset="0" />
      <stop
         id="stop1507"
         style="stop-color:#BF171D"
         offset="1" />
    </linearGradient>
    <clipPath
       id="clipPath958">
      <path
         id="path956"
         d="m1 1h640.93v132.88h-640.93z" />
    </clipPath>
    <clipPath
       id="clip2">
      <rect
         id="rect960"
         height="134"
         width="642" />
    </clipPath>
    <g
       id="g963"
       clip-path="url(#clip2)" />
    <clipPath
       id="clipPath967">
      <path
         id="path965"
         d="m1 1h210.93v210.88h-210.93z" />
    </clipPath>
    <clipPath
       id="clip4">
      <rect
         id="rect969"
         height="212"
         width="212" />
    </clipPath>
    <g
       id="g972"
       clip-path="url(#clip4)" />
    <clipPath
       id="clipPath976">
      <path
         id="path974"
         d="m1 1h210.93v210.88h-210.93z" />
    </clipPath>
    <clipPath
       id="clip8">
      <rect
         id="rect978"
         height="212"
         width="212" />
    </clipPath>
    <g
       id="g981"
       clip-path="url(#clip8)" />
    <clipPath
       id="clipPath985">
      <path
         id="path983"
         d="m1 1h117.93v110.88h-117.93z" />
    </clipPath>
    <clipPath
       id="clip12">
      <rect
         id="rect987"
         height="112"
         width="119" />
    </clipPath>
    <g
       id="g990"
       clip-path="url(#clip12)" />
    <linearGradient
       gradientUnits="userSpaceOnUse"
       gradientTransform="matrix(0,-8.0078312,8.0078202,0,-102.50188,103.64171)"
       x2="1"
       id="linearGradient2628">
      <stop
         id="stop992"
         offset="0"
         stop-color="#20b038" />
      <stop
         id="stop994"
         offset="1"
         stop-color="#60d66a" />
    </linearGradient>
    <linearGradient
       gradientUnits="userSpaceOnUse"
       gradientTransform="matrix(0,-8.2948835,8.2948721,0,-102.50185,103.78624)"
       x2="1"
       id="linearGradient2630">
      <stop
         id="stop997"
         offset="0"
         stop-color="#f9f9f9" />
      <stop
         id="stop999"
         offset="1"
         stop-color="#fff" />
    </linearGradient>
    <linearGradient
       x1="274.64203"
       y1="353.65765"
       x2="302.80609"
       y2="325.49359"
       id="linearGradient3870"
       xlink:href="#linearGradient3864"
       gradientUnits="userSpaceOnUse"
       gradientTransform="translate(-20,-20)" />
    <linearGradient
       id="linearGradient3864">
      <stop
         id="stop3866"
         style="stop-color:#001a4b;stop-opacity:1"
         offset="0" />
      <stop
         id="stop3868"
         style="stop-color:#001a4b;stop-opacity:0"
         offset="1" />
    </linearGradient>
  </defs>
  <metadata
     id="metadata828">
    <rdf:RDF>
      <cc:Work
         rdf:about="">
        <dc:format>image/svg+xml</dc:format>
        <dc:type
           rdf:resource="http://purl.org/dc/dcmitype/StillImage" />
        <dc:title />
      </cc:Work>
    </rdf:RDF>
  </metadata>
  <g
     inkscape:groupmode="layer"
     id="layer2"
     inkscape:label="background"
     style="display:inline;opacity:0.5">
    <rect
       style="opacity:1;fill:#ffffff;fill-opacity:1;fill-rule:evenodd;stroke:none;stroke-width:18;stroke-linecap:butt;stroke-linejoin:round;stroke-miterlimit:4;stroke-dasharray:none;stroke-opacity:1;paint-order:fill markers stroke"
       id="rect1428"
       width="1920"
       height="1570"
       x="0"
       y="0.00011999215" />
    <rect
       id="rect1510"
       height="1570"
       width="1920"
       x="0"
       y="4.5000002e-06"
       style="fill:#916f6f;fill-opacity:1;stroke-width:1" />
    <flowRoot
       xml:space="preserve"
       id="flowRoot950"
       style="font-style:normal;font-weight:normal;font-size:266.66665649px;line-height:1.25;font-family:sans-serif;letter-spacing:0px;word-spacing:0px;fill:#000000;fill-opacity:1;stroke:none"><flowRegion
         id="flowRegion952"
         style=""><rect
           id="rect954"
           width="1346.1509"
           height="349.99997"
           x="569"
           y="610.00012"
           style="" /></flowRegion><flowPara
         id="flowPara956" /></flowRoot>    <flowRoot
       xml:space="preserve"
       id="flowRoot966"
       style="font-style:normal;font-weight:normal;font-size:40px;line-height:1.25;font-family:sans-serif;letter-spacing:0px;word-spacing:0px;fill:#000000;fill-opacity:1;stroke:none"><flowRegion
         id="flowRegion968"
         style=""><rect
           id="rect970"
           width="23.980242"
           height="61.977371"
           x="749.99988"
           y="688.02264"
           style="" /></flowRegion><flowPara
         id="flowPara972" /></flowRoot>  </g>
  <g
     inkscape:groupmode="layer"
     id="layer3"
     inkscape:label="logo"
     style="display:inline">
    <g
       id="g984"
       transform="matrix(4.1153284,0,0,4.1153284,250.18299,634.04893)">
      <g
         id="Printer">
        <path
           id="path909"
           d="M 57.788101,14.03125 H 52.5 v -8.0625 c 0,-2.2091999 -1.790901,-4 -4,-4 h -33 c -2.2092,0 -4,1.7908001 -4,4 v 8.0625 H 6.2119002 C 2.7871001,14.03125 0,16.81835 0,20.243151 v 26.270498 c 0,3.424801 2.7871001,6.211903 6.2119002,6.211903 h 2.3798995 c 0.5527,0 1,-0.447201 1,-1 0,-0.5527 -0.4473,-1 -1,-1 H 6.2119002 C 3.8896,50.725552 2,48.835949 2,46.513649 V 20.243151 C 2,17.920851 3.8896,16.03125 6.2119002,16.03125 H 57.788103 C 60.110298,16.03125 62,17.920851 62,20.243151 v 26.270498 c 0,2.3223 -1.889702,4.211903 -4.211899,4.211903 H 56 c -0.552799,0 -1,0.4473 -1,1 0,0.552799 0.447201,1 1,1 h 1.788101 C 61.212898,52.725552 64,49.93845 64,46.513649 V 20.243151 C 64,16.81835 61.212898,14.03125 57.788101,14.03125 Z M 13.5,5.96875 c 0,-1.1027999 0.8972,-2 2,-2 h 33 c 1.102798,0 2,0.8972001 2,2 v 8 h -37 z"
           inkscape:connector-curvature="0"
           style="fill:#4d4d4d;fill-opacity:1" />
        <path
           id="path911"
           d="M 44,45.032249 H 20 c -0.5518,0 -0.999001,0.447201 -0.999001,0.999001 0,0.5518 0.447201,0.999 0.999001,0.999 h 24 c 0.551701,0 0.999,-0.4472 0.999,-0.999 0,-0.5518 -0.447299,-0.999001 -0.999,-0.999001 z"
           inkscape:connector-curvature="0"
           style="fill:#4d4d4d;fill-opacity:1" />
        <path
           id="path913"
           d="M 44,52.032249 H 20 c -0.5518,0 -0.999001,0.447201 -0.999001,0.999001 0,0.5518 0.447201,0.999 0.999001,0.999 h 24 c 0.551701,0 0.999,-0.4472 0.999,-0.999 0,-0.5518 -0.447299,-0.999001 -0.999,-0.999001 z"
           inkscape:connector-curvature="0"
           style="fill:#4d4d4d;fill-opacity:1" />
        <circle
           id="circle915"
           r="2"
           cy="21.840549"
           cx="7.9590998"
           style="fill:#4d4d4d;fill-opacity:1" />
        <circle
           id="circle917"
           r="2"
           cy="21.840549"
           cx="14.2857"
           style="fill:#4d4d4d;fill-opacity:1" />
        <circle
           id="circle919"
           r="2"
           cy="21.840549"
           cx="20.6122"
           style="fill:#4d4d4d;fill-opacity:1" />
        <path
           id="path921"
           d="m 11,62.03125 h 42 v -26 H 11 Z M 13.4037,38.434952 H 50.596296 V 59.627548 H 13.4037 Z"
           inkscape:connector-curvature="0"
           style="fill:#4d4d4d;fill-opacity:1" />
      </g>
      <g
         id="g924" />
      <g
         id="g926" />
      <g
         id="g928" />
      <g
         id="g930" />
      <g
         id="g932" />
      <g
         id="g934" />
      <g
         id="g936" />
      <g
         id="g938" />
      <g
         id="g940" />
      <g
         id="g942" />
      <g
         id="g944" />
      <g
         id="g946" />
      <g
         id="g948" />
      <g
         id="g950" />
      <g
         id="g952" />
    </g>
  </g>
  <g
     inkscape:groupmode="layer"
     id="layer4"
     inkscape:label="text"
     style="display:none">
    <flowRoot
       xml:space="preserve"
       id="flowRoot958"
       style="font-style:normal;font-weight:normal;font-size:200px;line-height:0;font-family:sans-serif;letter-spacing:0px;word-spacing:0px;display:inline;opacity:1;fill:#4d4d4d;fill-opacity:1;stroke:none"
       transform="translate(37.236927,174.56448)"><flowRegion
         id="flowRegion960"
         style="fill:#4d4d4d"><rect
           id="rect962"
           width="1330.3943"
           height="238.63799"
           x="575.76306"
           y="610.43561"
           style="fill:#4d4d4d;stroke-width:0.98030341" /></flowRegion><flowPara
         id="flowPara964"
         style="font-style:normal;font-variant:normal;font-weight:bold;font-stretch:normal;font-family:sans-serif;-inkscape-font-specification:'sans-serif Bold';fill:#4d4d4d">cloud print</flowPara></flowRoot>  </g>
  <g
     style="display:inline"
     inkscape:label="text copy"
     id="g994"
     inkscape:groupmode="layer">
    <g
       aria-label="cloud print"
       transform="translate(37.236927,174.56448)"
       style="font-style:normal;font-weight:normal;font-size:200px;line-height:0;font-family:sans-serif;letter-spacing:0px;word-spacing:0px;display:inline;opacity:1;fill:#4d4d4d;fill-opacity:1;stroke:none"
       id="flowRoot992">
      <path
         d="m 680.93945,556.43164 v 28.51563 q -7.1289,-4.88282 -14.35547,-7.22657 -7.1289,-2.34375 -14.84375,-2.34375 -14.64843,0 -22.85156,8.59375 -8.10547,8.4961 -8.10547,23.82813 0,15.33203 8.10547,23.92578 8.20313,8.49609 22.85156,8.49609 8.20313,0 15.52735,-2.4414 7.42187,-2.44141 13.67187,-7.22657 v 28.61329 q -8.20312,3.02734 -16.69922,4.49218 -8.39843,1.5625 -16.89453,1.5625 -29.58984,0 -46.28906,-15.13672 -16.69922,-15.23437 -16.69922,-42.28515 0,-27.05078 16.69922,-42.1875 16.69922,-15.23438 46.28906,-15.23438 8.59375,0 16.89453,1.5625 8.39844,1.46485 16.69922,4.49219 z"
         style="font-style:normal;font-variant:normal;font-weight:bold;font-stretch:normal;font-family:sans-serif;-inkscape-font-specification:'sans-serif Bold';fill:#4d4d4d"
         id="path996" />
      <path
         d="m 711.31055,510.43555 h 34.96093 v 151.95312 h -34.96093 z"
         style="font-style:normal;font-variant:normal;font-weight:bold;font-stretch:normal;font-family:sans-serif;-inkscape-font-specification:'sans-serif Bold';fill:#4d4d4d"
         id="path998" />
      <path
         d="m 832.11133,575.37695 q -11.6211,0 -17.77344,8.39844 -6.05469,8.30078 -6.05469,24.02344 0,15.72265 6.05469,24.12109 6.15234,8.30078 17.77344,8.30078 11.42578,0 17.48047,-8.30078 6.05468,-8.39844 6.05468,-24.12109 0,-15.72266 -6.05468,-24.02344 -6.05469,-8.39844 -17.48047,-8.39844 z m 0,-25 q 28.22265,0 44.04297,15.23438 15.91797,15.23437 15.91797,42.1875 0,26.95312 -15.91797,42.1875 -15.82032,15.23437 -44.04297,15.23437 -28.32031,0 -44.33594,-15.23437 -15.91797,-15.23438 -15.91797,-42.1875 0,-26.95313 15.91797,-42.1875 16.01563,-15.23438 44.33594,-15.23438 z"
         style="font-style:normal;font-variant:normal;font-weight:bold;font-stretch:normal;font-family:sans-serif;-inkscape-font-specification:'sans-serif Bold';fill:#4d4d4d"
         id="path1000" />
      <path
         d="m 916.38867,619.81055 v -66.79688 h 35.15625 v 10.9375 q 0,8.88672 -0.0977,22.36328 -0.0977,13.37891 -0.0977,17.8711 0,13.18359 0.68359,19.04297 0.6836,5.76171 2.34375,8.39843 2.14844,3.41797 5.56641,5.27344 3.51562,1.85547 8.00781,1.85547 10.9375,0 17.1875,-8.39844 6.25,-8.39844 6.25,-23.33984 v -54.00391 h 34.96093 v 109.375 h -34.96093 v -15.82031 q -7.91015,9.57031 -16.79687,14.16016 -8.78907,4.49218 -19.4336,4.49218 -18.94531,0 -28.90625,-11.62109 -9.86328,-11.62109 -9.86328,-33.78906 z"
         style="font-style:normal;font-variant:normal;font-weight:bold;font-stretch:normal;font-family:sans-serif;-inkscape-font-specification:'sans-serif Bold';fill:#4d4d4d"
         id="path1002" />
      <path
         d="m 1134.5527,569.0293 v -58.59375 h 35.1563 v 151.95312 h -35.1563 v -15.82031 q -7.2265,9.66797 -15.9179,14.16016 -8.6914,4.49218 -20.1172,4.49218 -20.2149,0 -33.2031,-16.01562 -12.9883,-16.11328 -12.9883,-41.40625 0,-25.29297 12.9883,-41.3086 12.9882,-16.11328 33.2031,-16.11328 11.3281,0 20.0195,4.58985 8.7891,4.49218 16.0156,14.0625 z m -23.0468,70.80078 q 11.2304,0 17.0898,-8.20313 5.957,-8.20312 5.957,-23.82812 0,-15.625 -5.957,-23.82813 -5.8594,-8.20312 -17.0898,-8.20312 -11.1329,0 -17.0899,8.20312 -5.8594,8.20313 -5.8594,23.82813 0,15.625 5.8594,23.82812 5.957,8.20313 17.0899,8.20313 z"
         style="font-style:normal;font-variant:normal;font-weight:bold;font-stretch:normal;font-family:sans-serif;-inkscape-font-specification:'sans-serif Bold';fill:#4d4d4d"
         id="path1004" />
      <path
         d="m 1307.9902,646.56836 v 57.42187 h -34.9609 V 553.01367 h 34.9609 v 16.01563 q 7.2266,-9.57032 16.0157,-14.0625 8.789,-4.58985 20.2148,-4.58985 20.2148,0 33.2031,16.11328 12.9883,16.01563 12.9883,41.3086 0,25.29297 -12.9883,41.40625 -12.9883,16.01562 -33.2031,16.01562 -11.4258,0 -20.2148,-4.49218 -8.7891,-4.58985 -16.0157,-14.16016 z m 23.2422,-70.80078 q -11.2304,0 -17.2851,8.30078 -5.9571,8.20312 -5.9571,23.73047 0,15.52734 5.9571,23.82812 6.0547,8.20313 17.2851,8.20313 11.2305,0 17.0899,-8.20313 5.957,-8.20312 5.957,-23.82812 0,-15.625 -5.957,-23.82813 -5.8594,-8.20312 -17.0899,-8.20312 z"
         style="font-style:normal;font-variant:normal;font-weight:bold;font-stretch:normal;font-family:sans-serif;-inkscape-font-specification:'sans-serif Bold';fill:#4d4d4d"
         id="path1006" />
      <path
         d="m 1497.6387,582.79883 q -4.5899,-2.14844 -9.1797,-3.125 -4.4922,-1.07422 -9.082,-1.07422 -13.4766,0 -20.8008,8.69141 -7.2266,8.59375 -7.2266,24.70703 v 50.39062 h -34.9609 v -109.375 h 34.9609 v 17.96875 q 6.7383,-10.74219 15.4297,-15.625 8.7891,-4.98047 20.9961,-4.98047 1.7578,0 3.8086,0.19532 2.0508,0.0977 5.957,0.58593 z"
         style="font-style:normal;font-variant:normal;font-weight:bold;font-stretch:normal;font-family:sans-serif;-inkscape-font-specification:'sans-serif Bold';fill:#4d4d4d"
         id="path1008" />
      <path
         d="m 1515.2168,553.01367 h 34.9609 v 109.375 h -34.9609 z m 0,-42.57812 h 34.9609 v 28.51562 h -34.9609 z"
         style="font-style:normal;font-variant:normal;font-weight:bold;font-stretch:normal;font-family:sans-serif;-inkscape-font-specification:'sans-serif Bold';fill:#4d4d4d"
         id="path1010" />
      <path
         d="m 1693.9277,595.78711 v 66.60156 h -35.1562 v -10.83984 -40.13672 q 0,-14.16016 -0.6836,-19.53125 -0.5859,-5.37109 -2.1484,-7.91016 -2.0508,-3.41797 -5.5665,-5.27343 -3.5156,-1.95313 -8.0078,-1.95313 -10.9375,0 -17.1875,8.49609 -6.25,8.39844 -6.25,23.33985 v 53.80859 h -34.9609 v -109.375 h 34.9609 v 16.01563 q 7.9102,-9.57032 16.7969,-14.0625 8.8867,-4.58985 19.6289,-4.58985 18.9453,0 28.711,11.6211 9.8632,11.62109 9.8632,33.78906 z"
         style="font-style:normal;font-variant:normal;font-weight:bold;font-stretch:normal;font-family:sans-serif;-inkscape-font-specification:'sans-serif Bold';fill:#4d4d4d"
         id="path1012" />
      <path
         d="m 1764.7285,521.95898 v 31.05469 h 36.0352 v 25 h -36.0352 v 46.38672 q 0,7.61719 3.0274,10.35156 3.0273,2.63672 12.0117,2.63672 h 17.9687 v 25 h -29.9804 q -20.7032,0 -29.3946,-8.59375 -8.5937,-8.6914 -8.5937,-29.39453 v -46.38672 h -17.3828 v -25 h 17.3828 v -31.05469 z"
         style="font-style:normal;font-variant:normal;font-weight:bold;font-stretch:normal;font-family:sans-serif;-inkscape-font-specification:'sans-serif Bold';fill:#4d4d4d"
         id="path1014" />
    </g>
  </g>
  <style
     id="style1063"
     type="text/css">
                            .logo_white{fill:#FFFFFF;}
                            .logo_green{fill:#00E676;}
                        </style>
</svg>
